<?xml version="1.0" encoding="UTF-8"?>
<!DOCTYPE svg PUBLIC "-//W3C//DTD SVG 1.1//EN" "http://www.w3.org/Graphics/SVG/1.1/DTD/svg11.dtd">
<svg xmlns="http://www.w3.org/2000/svg" xmlns:xlink="http://www.w3.org/1999/xlink" version="1.1" width="1395px" height="1583px" viewBox="-0.5 -0.5 1395 1583"><defs/><g><rect x="32.5" y="12" width="1350" height="300" fill="#d9d9d9" stroke="#a6a6a6" stroke-width="4" pointer-events="all"/><rect x="32.5" y="312" width="1350" height="525" fill="#f8cecc" stroke="#b85450" stroke-width="4" pointer-events="all"/><rect x="10" y="972" width="300" height="600" fill="#dbdbdb" stroke="#3d3d3d" transform="translate(160,0)scale(-1,1)translate(-160,0)" pointer-events="none"/><rect x="140" y="972" width="170" height="600" fill="#dbdbdb" stroke="#3d3d3d" transform="translate(225,0)scale(-1,1)translate(-225,0)" pointer-events="none"/><rect x="10" y="972" width="130" height="160" fill="#dbdbdb" stroke="#3d3d3d" transform="translate(75,0)scale(-1,1)translate(-75,0)" pointer-events="none"/><rect x="10" y="1192" width="130" height="160" fill="#dbdbdb" stroke="#3d3d3d" transform="translate(75,0)scale(-1,1)translate(-75,0)" pointer-events="none"/><rect x="10" y="1412" width="130" height="160" fill="#dbdbdb" stroke="#3d3d3d" transform="translate(75,0)scale(-1,1)translate(-75,0)" pointer-events="none"/><path d="M 155 142 L 215 162 L 155 182 L 95 162 Z" fill="#c99be0" stroke="#9371a3" stroke-width="3" stroke-miterlimit="10" transform="rotate(90,155,162)" pointer-events="none"/><path d="M 293 142 L 353 162 L 293 182 L 233 162 Z" fill="#c99be0" stroke="#9371a3" stroke-width="3" stroke-miterlimit="10" transform="rotate(90,293,162)" pointer-events="none"/><path d="M 431 142 L 491 162 L 431 182 L 371 162 Z" fill="#c99be0" stroke="#9371a3" stroke-width="3" stroke-miterlimit="10" transform="rotate(90,431,162)" pointer-events="none"/><path d="M 569 142 L 629 162 L 569 182 L 509 162 Z" fill="#c99be0" stroke="#9371a3" stroke-width="3" stroke-miterlimit="10" transform="rotate(90,569,162)" pointer-events="none"/><path d="M 708 142 L 768 162 L 708 182 L 648 162 Z" fill="#c99be0" stroke="#9371a3" stroke-width="3" stroke-miterlimit="10" transform="rotate(90,708,162)" pointer-events="none"/><path d="M 846 142 L 906 162 L 846 182 L 786 162 Z" fill="#c99be0" stroke="#9371a3" stroke-width="3" stroke-miterlimit="10" transform="rotate(90,846,162)" pointer-events="none"/><path d="M 984 142 L 1044 162 L 984 182 L 924 162 Z" fill="#c99be0" stroke="#9371a3" stroke-width="3" stroke-miterlimit="10" transform="rotate(90,984,162)" pointer-events="none"/><path d="M 1122 142 L 1182 162 L 1122 182 L 1062 162 Z" fill="#c99be0" stroke="#9371a3" stroke-width="3" stroke-miterlimit="10" transform="rotate(90,1122,162)" pointer-events="none"/><path d="M 1260 142 L 1320 162 L 1260 182 L 1200 162 Z" fill="#c99be0" stroke="#9371a3" stroke-width="3" stroke-miterlimit="10" transform="rotate(90,1260,162)" pointer-events="none"/><path d="M 1101.5 489 L 1161.5 509 L 1101.5 529 L 1041.5 509 Z" fill="#c99be0" stroke="#9371a3" stroke-width="3" stroke-miterlimit="10" pointer-events="none"/><path d="M 905 489 L 965 509 L 905 529 L 845 509 Z" fill="#c99be0" stroke="#9371a3" stroke-width="3" stroke-miterlimit="10" pointer-events="none"/><path d="M 708 489 L 768 509 L 708 529 L 648 509 Z" fill="#c99be0" stroke="#9371a3" stroke-width="3" stroke-miterlimit="10" pointer-events="none"/><path d="M 511 489 L 571 509 L 511 529 L 451 509 Z" fill="#c99be0" stroke="#9371a3" stroke-width="3" stroke-miterlimit="10" pointer-events="none"/><path d="M 314.5 489 L 374.5 509 L 314.5 529 L 254.5 509 Z" fill="#c99be0" stroke="#9371a3" stroke-width="3" stroke-miterlimit="10" pointer-events="none"/><path d="M 1101.5 682 L 1161.5 702 L 1101.5 722 L 1041.5 702 Z" fill="#c99be0" stroke="#9371a3" stroke-width="3" stroke-miterlimit="10" pointer-events="none"/><path d="M 905 682 L 965 702 L 905 722 L 845 702 Z" fill="#c99be0" stroke="#9371a3" stroke-width="3" stroke-miterlimit="10" pointer-events="none"/><path d="M 708 682 L 768 702 L 708 722 L 648 702 Z" fill="#c99be0" stroke="#9371a3" stroke-width="3" stroke-miterlimit="10" pointer-events="none"/><path d="M 511 682 L 571 702 L 511 722 L 451 702 Z" fill="#c99be0" stroke="#9371a3" stroke-width="3" stroke-miterlimit="10" pointer-events="none"/><path d="M 314.5 682 L 374.5 702 L 314.5 722 L 254.5 702 Z" fill="#c99be0" stroke="#9371a3" stroke-width="3" stroke-miterlimit="10" pointer-events="none"/><path d="M 1199 585 L 1259 605 L 1199 625 L 1139 605 Z" fill="#c99be0" stroke="#9371a3" stroke-width="3" stroke-miterlimit="10" pointer-events="none"/><path d="M 1002 585 L 1062 605 L 1002 625 L 942 605 Z" fill="#c99be0" stroke="#9371a3" stroke-width="3" stroke-miterlimit="10" pointer-events="none"/><path d="M 805 585 L 865 605 L 805 625 L 745 605 Z" fill="#c99be0" stroke="#9371a3" stroke-width="3" stroke-miterlimit="10" pointer-events="none"/><path d="M 609 585 L 669 605 L 609 625 L 549 605 Z" fill="#c99be0" stroke="#9371a3" stroke-width="3" stroke-miterlimit="10" pointer-events="none"/><path d="M 412 585 L 472 605 L 412 625 L 352 605 Z" fill="#c99be0" stroke="#9371a3" stroke-width="3" stroke-miterlimit="10" pointer-events="none"/><path d="M 215 585 L 275 605 L 215 625 L 155 605 Z" fill="#c99be0" stroke="#9371a3" stroke-width="3" stroke-miterlimit="10" pointer-events="none"/></g></svg>